<?xml version="1.0" encoding="UTF-8"?>
<svg id="Layer_1" data-name="Layer 1" xmlns="http://www.w3.org/2000/svg" xmlns:xlink="http://www.w3.org/1999/xlink" viewBox="0 0 428.49 119.36">
  <defs>
    <style>
      .cls-1 {
        clip-path: url(#clippath);
      }

      .cls-2 {
        fill: none;
      }

      .cls-2, .cls-3 {
        stroke-width: 0px;
      }

      .cls-3 {
        fill: #ee2737;
      }
    </style>
    <clipPath id="clippath">
      <rect class="cls-2" x="1.25" width="424.71" height="119.36"/>
    </clipPath>
  </defs>
  <g class="cls-1">
    <g>
      <path class="cls-3" d="m158.93,41.96c.56-2.83,1.1-5.52,1.63-8.24h23.52v82.1c-.31.03-.66.07-.99.07-7.15,0-14.29-.01-21.44.03-.88,0-1.25-.3-1.51-1.1-.83-2.41-1.74-4.79-2.57-7.01-2.41,1.85-4.63,3.88-7.15,5.44-14,8.68-36.63,7.47-48.65-11.93-4.57-7.39-6.62-15.53-6.96-24.16-.39-9.73,1.3-18.99,6.27-27.46,13.5-23.05,42.07-23.08,57.04-8.44.21.22.47.39.82.69h0Zm-1.65,32.94c0-4.21-.11-8.41.05-12.61.07-1.81-.6-3-1.82-4.15-4-3.76-8.81-5.36-14.2-5.52-7.93-.23-14.56,4.18-17.4,11.66-2.28,5.99-2.36,12.12-.79,18.28,1.18,4.64,3.5,8.56,7.49,11.32,3.71,2.57,7.88,3.23,12.26,2.8,5.34-.53,10.09-2.42,13.74-6.53.38-.42.63-1.11.64-1.68.05-4.52.03-9.05.03-13.57Z"/>
      <path class="cls-3" d="m281.04,115.9h-18.66c-1.3,0-2.88.35-3.8-.26-.88-.58-1.11-2.2-1.62-3.38-.72-1.68-1.42-3.35-2.16-5.07-1.67,1.46-3.15,2.99-4.85,4.21-11.25,8.04-23.25,9.51-35.68,3.25-7.61-3.84-11.59-10.71-13.13-19.01-.47-2.5-.66-5.09-.66-7.64-.05-17.63-.03-35.25-.03-52.89v-1.34h26.87v46.91c0,2.85.24,5.68,1.21,8.4,1.89,5.28,6.55,8.18,12.09,7.74,5.68-.46,9.92-3.27,13.18-7.81.31-.43.42-1.11.42-1.66.03-17.36.01-34.7.01-52.05v-1.5h26.8v82.12h0Z"/>
      <path class="cls-3" d="m347.14,53.39h-10.49v-19.68h10.43V9.77h25.92v23.9h23.88v19.74h-23.72c-.05.26-.11.41-.09.55.01,10.94,0,21.87.08,32.82.03,2.77.8,5.4,2.87,7.43,2.4,2.37,5.42,2.85,8.52,2.31,3.21-.55,6.35-1.56,9.66-2.39,1.94,5.87,3.98,12.04,6.11,18.49-2.68,1.12-5.29,2.37-8.01,3.3-8.32,2.85-16.81,3.34-25.33,1.14-10.93-2.83-17.09-10.23-19.06-21.25-.52-2.94-.71-5.97-.74-8.95-.08-10.62-.03-21.24-.03-31.86v-1.58h0Z"/>
      <path class="cls-3" d="m94.65,33.68c-.21.54-.36.93-.54,1.33-12.23,26.99-24.47,53.97-36.69,80.97-.36.8-.76,1.11-1.66,1.11-5.2-.05-10.39-.04-15.6,0-.75,0-1.11-.24-1.42-.92C26.37,88.97,14,61.78,1.62,34.6c-.11-.24-.21-.5-.38-.85.46-.03.79-.05,1.13-.05,8.61,0,17.22.01,25.84-.03.92,0,1.29.32,1.59,1.15,5.8,16.04,11.63,32.07,17.45,48.1.13.38.29.73.52,1.3.24-.57.42-.97.58-1.38,5.96-15.98,11.93-31.95,17.87-47.95.36-.96.82-1.23,1.78-1.22,8.45.04,16.92.03,25.37.03h1.29Z"/>
      <path class="cls-3" d="m325.03,115.86h-26.68V.85h26.68v115.01Z"/>
      <path class="cls-3" d="m145.46,71.45c0-3.03-2.42-5.48-5.42-5.48s-5.42,2.45-5.42,5.48c0,1.72.79,3.26,2.02,4.26l-1.89,7.75h10.58l-1.9-7.74c1.23-1,2.02-2.54,2.02-4.26h.01Z"/>
      <path class="cls-3" d="m425.95,118.51h-13.29v-13.49h13.29v13.49Z"/>
    </g>
  </g>
</svg>